<mxfile host="app.diagrams.net" modified="2023-11-26T11:35:24.312Z" agent="Mozilla/5.0 (Windows NT 10.0; Win64; x64) AppleWebKit/537.36 (KHTML, like Gecko) Chrome/118.0.0.0 Safari/537.36 OPR/104.0.0.0" version="22.1.4" etag="m53QizzXb7Bh1m4CkBWX" type="github">
  <diagram name="第 1 页" id="E0AtgV7Ir-Fn50yhCpMO">
    <mxGraphModel>
      <root>
        <mxCell id="0" />
        <mxCell id="1" parent="0" />
      </root>
    </mxGraphModel>
  </diagram>
</mxfile>
